<svg id="visual" viewBox="0 0 900 600" width="900" height="600" xmlns="http://www.w3.org/2000/svg" xmlns:xlink="http://www.w3.org/1999/xlink" version="1.1"><rect x="0" y="0" width="900" height="600" fill="#001220"></rect><path d="M0 155L21.5 164.3C43 173.7 86 192.3 128.8 201.7C171.7 211 214.3 211 257.2 207.3C300 203.7 343 196.3 385.8 187C428.7 177.7 471.3 166.3 514.2 162.7C557 159 600 163 642.8 171.5C685.7 180 728.3 193 771.2 201.8C814 210.7 857 215.3 878.5 217.7L900 220L900 0L878.5 0C857 0 814 0 771.2 0C728.3 0 685.7 0 642.8 0C600 0 557 0 514.2 0C471.3 0 428.7 0 385.8 0C343 0 300 0 257.2 0C214.3 0 171.7 0 128.8 0C86 0 43 0 21.5 0L0 0Z" fill="#fa7268"></path><path d="M0 137L21.5 144.2C43 151.3 86 165.7 128.8 177C171.7 188.3 214.3 196.7 257.2 196.3C300 196 343 187 385.8 173C428.7 159 471.3 140 514.2 132.5C557 125 600 129 642.8 132.7C685.7 136.3 728.3 139.7 771.2 150C814 160.3 857 177.7 878.5 186.3L900 195L900 0L878.5 0C857 0 814 0 771.2 0C728.3 0 685.7 0 642.8 0C600 0 557 0 514.2 0C471.3 0 428.7 0 385.8 0C343 0 300 0 257.2 0C214.3 0 171.7 0 128.8 0C86 0 43 0 21.5 0L0 0Z" fill="#ef5f67"></path><path d="M0 135L21.5 131.7C43 128.3 86 121.7 128.8 118.2C171.7 114.7 214.3 114.3 257.2 119.3C300 124.3 343 134.7 385.8 130.7C428.7 126.7 471.3 108.3 514.2 100.5C557 92.7 600 95.3 642.8 101.5C685.7 107.7 728.3 117.3 771.2 121.7C814 126 857 125 878.5 124.5L900 124L900 0L878.5 0C857 0 814 0 771.2 0C728.3 0 685.7 0 642.8 0C600 0 557 0 514.2 0C471.3 0 428.7 0 385.8 0C343 0 300 0 257.2 0C214.3 0 171.7 0 128.8 0C86 0 43 0 21.5 0L0 0Z" fill="#e34c67"></path><path d="M0 91L21.5 88.5C43 86 86 81 128.8 76.5C171.7 72 214.3 68 257.2 69.8C300 71.7 343 79.3 385.8 86.2C428.7 93 471.3 99 514.2 97.2C557 95.3 600 85.7 642.8 84C685.7 82.3 728.3 88.7 771.2 91.7C814 94.7 857 94.3 878.5 94.2L900 94L900 0L878.5 0C857 0 814 0 771.2 0C728.3 0 685.7 0 642.8 0C600 0 557 0 514.2 0C471.3 0 428.7 0 385.8 0C343 0 300 0 257.2 0C214.3 0 171.7 0 128.8 0C86 0 43 0 21.5 0L0 0Z" fill="#d53867"></path><path d="M0 58L21.5 60.2C43 62.3 86 66.7 128.8 64.2C171.7 61.7 214.3 52.3 257.2 51.8C300 51.3 343 59.7 385.8 60.7C428.7 61.7 471.3 55.3 514.2 52C557 48.7 600 48.3 642.8 48.3C685.7 48.3 728.3 48.7 771.2 52.3C814 56 857 63 878.5 66.5L900 70L900 0L878.5 0C857 0 814 0 771.2 0C728.3 0 685.7 0 642.8 0C600 0 557 0 514.2 0C471.3 0 428.7 0 385.8 0C343 0 300 0 257.2 0C214.3 0 171.7 0 128.8 0C86 0 43 0 21.5 0L0 0Z" fill="#c62368"></path></svg>