<svg id="visual" viewBox="0 0 900 450" width="900" height="450" xmlns="http://www.w3.org/2000/svg" xmlns:xlink="http://www.w3.org/1999/xlink" version="1.1"><path d="M0 168L21.5 159C43 150 86 132 128.8 134.2C171.7 136.3 214.3 158.7 257.2 160.5C300 162.3 343 143.7 385.8 137.5C428.7 131.3 471.3 137.7 514.2 147.3C557 157 600 170 642.8 168C685.7 166 728.3 149 771.2 148.5C814 148 857 164 878.5 172L900 180L900 0L878.5 0C857 0 814 0 771.2 0C728.3 0 685.7 0 642.8 0C600 0 557 0 514.2 0C471.3 0 428.7 0 385.8 0C343 0 300 0 257.2 0C214.3 0 171.7 0 128.8 0C86 0 43 0 21.5 0L0 0Z" fill="#ff0066"></path><path d="M0 117L21.5 122.8C43 128.7 86 140.3 128.8 137C171.7 133.7 214.3 115.3 257.2 106C300 96.7 343 96.3 385.8 101.2C428.7 106 471.3 116 514.2 115.3C557 114.7 600 103.3 642.8 104.3C685.7 105.3 728.3 118.7 771.2 128.7C814 138.7 857 145.3 878.5 148.7L900 152L900 0L878.5 0C857 0 814 0 771.2 0C728.3 0 685.7 0 642.8 0C600 0 557 0 514.2 0C471.3 0 428.7 0 385.8 0C343 0 300 0 257.2 0C214.3 0 171.7 0 128.8 0C86 0 43 0 21.5 0L0 0Z" fill="#e40079"></path><path d="M0 84L21.5 83C43 82 86 80 128.8 80.3C171.7 80.7 214.3 83.3 257.2 89.2C300 95 343 104 385.8 109.5C428.7 115 471.3 117 514.2 111.3C557 105.7 600 92.3 642.8 85C685.7 77.7 728.3 76.3 771.2 75C814 73.7 857 72.3 878.5 71.7L900 71L900 0L878.5 0C857 0 814 0 771.2 0C728.3 0 685.7 0 642.8 0C600 0 557 0 514.2 0C471.3 0 428.7 0 385.8 0C343 0 300 0 257.2 0C214.3 0 171.7 0 128.8 0C86 0 43 0 21.5 0L0 0Z" fill="#c30088"></path><path d="M0 70L21.5 71C43 72 86 74 128.8 71.2C171.7 68.3 214.3 60.7 257.2 62C300 63.3 343 73.7 385.8 77.5C428.7 81.3 471.3 78.7 514.2 73C557 67.3 600 58.7 642.8 57.5C685.7 56.3 728.3 62.7 771.2 62.5C814 62.3 857 55.7 878.5 52.3L900 49L900 0L878.5 0C857 0 814 0 771.2 0C728.3 0 685.7 0 642.8 0C600 0 557 0 514.2 0C471.3 0 428.7 0 385.8 0C343 0 300 0 257.2 0C214.3 0 171.7 0 128.8 0C86 0 43 0 21.5 0L0 0Z" fill="#9a0793"></path><path d="M0 39L21.5 38.5C43 38 86 37 128.8 35.2C171.7 33.3 214.3 30.7 257.2 32.7C300 34.7 343 41.3 385.8 44.8C428.7 48.3 471.3 48.7 514.2 45.5C557 42.3 600 35.7 642.8 33.3C685.7 31 728.3 33 771.2 32.3C814 31.7 857 28.3 878.5 26.7L900 25L900 0L878.5 0C857 0 814 0 771.2 0C728.3 0 685.7 0 642.8 0C600 0 557 0 514.2 0C471.3 0 428.7 0 385.8 0C343 0 300 0 257.2 0C214.3 0 171.7 0 128.8 0C86 0 43 0 21.5 0L0 0Z" fill="#671a99"></path></svg>