<svg id="visual" viewBox="0 0 900 450" width="900" height="450" xmlns="http://www.w3.org/2000/svg" xmlns:xlink="http://www.w3.org/1999/xlink" version="1.1"><path d="M0 280L21.5 289C43 298 86 316 128.8 313.8C171.7 311.7 214.3 289.3 257.2 287.5C300 285.7 343 304.3 385.8 310.5C428.7 316.7 471.3 310.3 514.2 300.7C557 291 600 278 642.8 280C685.7 282 728.3 299 771.2 299.5C814 300 857 284 878.5 276L900 268L900 451L878.5 451C857 451 814 451 771.2 451C728.3 451 685.7 451 642.8 451C600 451 557 451 514.2 451C471.3 451 428.7 451 385.8 451C343 451 300 451 257.2 451C214.3 451 171.7 451 128.8 451C86 451 43 451 21.5 451L0 451Z" fill="#ff0066"></path><path d="M0 331L21.5 325.2C43 319.3 86 307.7 128.8 311C171.7 314.3 214.3 332.7 257.2 342C300 351.3 343 351.7 385.8 346.8C428.7 342 471.3 332 514.2 332.7C557 333.3 600 344.7 642.8 343.7C685.7 342.7 728.3 329.3 771.2 319.3C814 309.3 857 302.7 878.5 299.3L900 296L900 451L878.5 451C857 451 814 451 771.2 451C728.3 451 685.7 451 642.8 451C600 451 557 451 514.2 451C471.3 451 428.7 451 385.8 451C343 451 300 451 257.2 451C214.3 451 171.7 451 128.8 451C86 451 43 451 21.5 451L0 451Z" fill="#e40079"></path><path d="M0 364L21.5 365C43 366 86 368 128.8 367.7C171.7 367.3 214.3 364.7 257.2 358.8C300 353 343 344 385.8 338.5C428.7 333 471.3 331 514.2 336.7C557 342.3 600 355.7 642.8 363C685.7 370.3 728.3 371.7 771.2 373C814 374.3 857 375.7 878.5 376.3L900 377L900 451L878.5 451C857 451 814 451 771.2 451C728.3 451 685.7 451 642.8 451C600 451 557 451 514.2 451C471.3 451 428.7 451 385.8 451C343 451 300 451 257.2 451C214.3 451 171.7 451 128.8 451C86 451 43 451 21.5 451L0 451Z" fill="#c30088"></path><path d="M0 378L21.5 377C43 376 86 374 128.8 376.8C171.7 379.7 214.3 387.3 257.2 386C300 384.7 343 374.3 385.8 370.5C428.7 366.7 471.3 369.3 514.2 375C557 380.7 600 389.3 642.8 390.5C685.7 391.7 728.3 385.3 771.2 385.5C814 385.7 857 392.3 878.5 395.7L900 399L900 451L878.5 451C857 451 814 451 771.2 451C728.3 451 685.7 451 642.8 451C600 451 557 451 514.2 451C471.3 451 428.7 451 385.8 451C343 451 300 451 257.2 451C214.3 451 171.7 451 128.8 451C86 451 43 451 21.5 451L0 451Z" fill="#9a0793"></path><path d="M0 409L21.5 409.5C43 410 86 411 128.8 412.8C171.7 414.7 214.3 417.3 257.2 415.3C300 413.3 343 406.7 385.8 403.2C428.7 399.7 471.3 399.3 514.2 402.5C557 405.7 600 412.3 642.8 414.7C685.7 417 728.3 415 771.2 415.7C814 416.3 857 419.7 878.5 421.3L900 423L900 451L878.5 451C857 451 814 451 771.2 451C728.3 451 685.7 451 642.8 451C600 451 557 451 514.2 451C471.3 451 428.7 451 385.8 451C343 451 300 451 257.2 451C214.3 451 171.7 451 128.8 451C86 451 43 451 21.5 451L0 451Z" fill="#671a99"></path></svg>